<?xml version="1.0" standalone="no"?>
<!DOCTYPE svg PUBLIC "-//W3C//DTD SVG 20010904//EN"
 "http://www.w3.org/TR/2001/REC-SVG-20010904/DTD/svg10.dtd">
<svg version="1.0" xmlns="http://www.w3.org/2000/svg"
 width="424.000000pt" height="229.000000pt" viewBox="0 0 424.000000 229.000000"
 preserveAspectRatio="xMidYMid meet">

<g transform="translate(0.000000,229.000000) scale(0.100000,-0.100000)"
fill="#000000" stroke="none">
<path d="M135 2280 c-4 -6 -10 -8 -15 -5 -5 3 -18 0 -29 -7 -16 -10 -18 -15
-8 -28 6 -8 7 -12 3 -8 -5 4 -15 3 -23 -3 -10 -9 -13 -8 -13 1 0 8 -3 11 -6 7
-3 -3 -2 -12 2 -19 13 -20 13 -38 2 -38 -6 0 -8 6 -5 14 4 10 0 12 -15 8 -21
-5 -21 -5 1 -24 13 -10 18 -18 12 -18 -6 0 -11 -7 -11 -16 0 -8 -5 -12 -10 -9
-8 5 -8 11 -1 19 11 13 5 26 -10 26 -5 0 -9 -452 -9 -1005 0 -655 4 -1004 10
-1000 6 3 10 2 10 -4 0 -5 -6 -12 -13 -14 -9 -4 -9 -6 1 -6 6 -1 12 -8 12 -16
0 -8 5 -15 10 -15 13 0 13 17 0 25 -6 4 -8 11 -4 16 3 5 1 16 -5 23 -8 9 -7
13 3 13 7 0 13 -10 12 -21 -1 -12 3 -24 8 -28 6 -4 5 -16 -4 -33 l-14 -26 -12
28 c-7 15 -13 21 -13 12 -1 -8 5 -23 12 -33 12 -17 15 -17 29 -2 14 14 17 14
22 0 3 -8 2 -12 -3 -9 -5 3 -13 0 -17 -6 -7 -12 35 -59 57 -62 8 -2 19 -6 26
-10 11 -7 3961 -3 3996 4 16 3 21 13 18 33 -1 5 4 4 11 -1 10 -8 18 -8 32 3
11 8 15 14 8 14 -6 0 -9 8 -6 18 5 14 4 15 -5 2 -8 -11 -11 -12 -11 -2 0 7 -5
10 -12 6 -8 -5 -6 -11 5 -19 9 -7 14 -15 11 -18 -4 -3 -13 1 -21 9 -14 13 -13
17 2 34 23 25 32 25 40 -1 7 -20 8 -20 26 7 24 36 25 52 2 27 -10 -10 -17 -17
-16 -14 2 2 -2 11 -9 18 -7 9 -8 17 -2 21 5 4 9 16 8 28 -1 11 5 21 12 21 10
0 11 -4 2 -14 -6 -7 -8 -16 -5 -20 4 -3 2 -12 -4 -19 -7 -8 -7 -14 1 -19 5 -3
10 0 10 9 0 8 6 17 13 19 10 4 10 6 0 6 -7 1 -13 6 -13 12 0 5 4 7 10 4 6 -4
10 345 10 1000 0 553 -4 1005 -9 1005 -15 0 -21 -13 -10 -26 7 -8 7 -14 -1
-19 -5 -3 -10 1 -10 9 0 9 -5 16 -11 16 -6 0 -1 9 12 20 20 16 21 19 7 20 -10
0 -18 -4 -18 -10 0 -5 -4 -10 -8 -10 -5 0 -9 6 -9 14 0 8 3 14 6 13 3 -1 7 3
8 8 0 6 -4 9 -10 7 -7 -2 -9 0 -5 4 12 11 -11 34 -28 27 -8 -3 -17 2 -20 12
-5 13 -9 14 -15 3 -7 -10 -9 -11 -9 0 0 7 -4 10 -10 7 -5 -3 -10 -1 -10 4 0
15 -3946 15 -3955 1z m1998 -20 c1840 0 1967 -1 1967 -17 0 -13 -3 -14 -12 -5
-9 9 -460 12 -1968 12 -1344 0 -1959 3 -1966 10 -8 8 -15 6 -24 -5 -11 -13
-10 -14 5 -9 12 5 16 4 12 -3 -4 -6 -15 -13 -26 -16 -15 -3 -17 0 -13 16 4 15
2 18 -8 12 -8 -5 -11 -4 -6 3 4 6 13 9 20 6 8 -3 17 0 21 6 5 8 11 8 19 1 9
-8 629 -11 1979 -11z m2017 -20 c12 6 17 5 17 -5 0 -7 -7 -11 -15 -7 -10 3
-13 1 -8 -6 12 -20 0 -13 -20 11 -10 12 -12 17 -5 10 9 -8 20 -9 31 -3z
m-2367 -252 c52 -27 142 -105 192 -166 74 -89 122 -186 195 -391 73 -207 112
-296 171 -382 81 -120 187 -207 347 -288 57 -29 63 -35 60 -59 -6 -54 -76 -35
-228 62 -141 92 -254 224 -329 389 -21 45 -64 156 -95 247 -98 280 -183 411
-328 504 -43 27 -58 43 -58 60 0 12 3 26 7 29 10 11 42 8 66 -5z m245 -708 c2
-18 -49 -109 -181 -320 -173 -278 -185 -295 -213 -295 -58 0 -45 30 142 333
97 158 182 293 187 300 6 7 22 12 36 10 19 -2 27 -9 29 -28z m-1308 -870 c0
-5 -22 -10 -50 -10 -49 0 -50 -1 -50 -30 0 -28 2 -30 40 -30 22 0 40 -4 40
-10 0 -5 -18 -10 -40 -10 l-40 0 0 -40 0 -40 50 0 c28 0 50 -4 50 -10 0 -6
-30 -10 -70 -10 l-70 0 0 100 0 100 70 0 c40 0 70 -4 70 -10z m80 -90 c0 -93
-1 -100 -20 -100 -19 0 -20 7 -20 100 0 93 1 100 20 100 19 0 20 -7 20 -100z
m880 80 c0 -13 -7 -20 -20 -20 -13 0 -20 7 -20 20 0 13 7 20 20 20 13 0 20 -7
20 -20z m400 10 c0 -5 -22 -10 -50 -10 -49 0 -50 -1 -50 -30 0 -28 2 -30 40
-30 22 0 40 -4 40 -10 0 -5 -18 -10 -40 -10 l-40 0 0 -50 c0 -43 -3 -50 -20
-50 -19 0 -20 7 -20 100 l0 100 70 0 c40 0 70 -4 70 -10z m380 -90 c0 -93 -1
-100 -20 -100 -19 0 -20 7 -20 100 0 93 1 100 20 100 19 0 20 -7 20 -100z
m160 0 c0 -93 -1 -100 -20 -100 -19 0 -20 7 -20 100 0 93 1 100 20 100 19 0
20 -7 20 -100z m240 80 c0 -13 -7 -20 -20 -20 -13 0 -20 7 -20 20 0 13 7 20
20 20 13 0 20 -7 20 -20z m460 0 c0 -13 -7 -20 -20 -20 -13 0 -20 7 -20 20 0
13 7 20 20 20 13 0 20 -7 20 -20z m-2140 -19 c0 -11 6 -22 13 -25 10 -5 10 -7
0 -12 -15 -7 -18 -104 -3 -104 6 0 10 -4 10 -10 0 -15 -29 -12 -46 4 -8 9 -14
34 -14 60 0 25 -4 46 -10 46 -5 0 -10 -4 -10 -10 0 -5 -9 -10 -20 -10 -11 0
-20 5 -20 10 0 6 -9 10 -20 10 -17 0 -20 -7 -20 -50 0 -43 3 -50 20 -50 11 0
20 5 20 10 0 6 9 10 20 10 24 0 25 -6 6 -26 -19 -18 -73 -18 -92 0 -8 8 -14
33 -14 56 0 23 6 48 14 56 18 17 83 19 88 2 6 -17 38 14 38 36 0 9 8 16 20 16
13 0 20 -7 20 -19z m2060 0 c0 -11 6 -22 13 -25 10 -5 10 -7 0 -12 -15 -7 -18
-104 -3 -104 6 0 10 -4 10 -10 0 -15 -29 -12 -46 4 -8 8 -14 34 -14 60 0 25
-4 46 -10 46 -5 0 -10 -4 -10 -10 0 -5 -9 -10 -20 -10 -11 0 -20 5 -20 10 0 6
-9 10 -20 10 -17 0 -20 -7 -20 -50 0 -43 3 -50 20 -50 11 0 20 5 20 10 0 6 9
10 20 10 24 0 25 -6 6 -26 -8 -8 -29 -14 -46 -14 -42 0 -60 20 -60 70 0 23 6
48 14 56 18 17 83 19 88 2 6 -17 38 14 38 36 0 9 8 16 20 16 13 0 20 -7 20
-19z m-2294 -35 c27 -28 17 -46 -26 -46 -38 0 -40 -2 -40 -30 0 -23 4 -30 20
-30 11 0 20 5 20 10 0 6 9 10 20 10 24 0 25 -6 6 -26 -19 -18 -73 -18 -92 0
-17 18 -19 92 -1 111 16 19 74 19 93 1z m354 6 c0 -4 -9 -14 -20 -22 -15 -11
-20 -26 -20 -62 0 -41 -3 -48 -20 -48 -18 0 -20 7 -20 70 l0 70 40 0 c22 0 40
-4 40 -8z m126 -6 c18 -19 18 -93 0 -112 -19 -18 -73 -18 -92 0 -17 18 -19 92
-1 111 16 19 74 19 93 1z m160 0 c9 -9 14 -35 14 -70 0 -49 -2 -56 -20 -56
-18 0 -20 7 -20 60 0 53 -2 60 -20 60 -18 0 -20 -7 -20 -60 0 -53 -2 -60 -20
-60 -18 0 -20 7 -20 70 l0 70 46 0 c26 0 52 -6 60 -14z m94 -56 c0 -63 -2 -70
-20 -70 -18 0 -20 7 -20 70 0 63 2 70 20 70 18 0 20 -7 20 -70z m146 56 c19
-20 18 -26 -6 -26 -11 0 -20 5 -20 10 0 6 -9 10 -20 10 -17 0 -20 -7 -20 -50
0 -43 3 -50 20 -50 11 0 20 5 20 10 0 6 9 10 20 10 24 0 25 -6 6 -26 -19 -18
-73 -18 -92 0 -17 18 -19 92 -1 111 16 19 74 19 93 1z m314 -46 c0 -53 2 -60
20 -60 18 0 20 7 20 60 0 53 2 60 20 60 18 0 20 -7 20 -70 l0 -70 -46 0 c-60
0 -74 15 -74 84 0 49 2 56 20 56 18 0 20 -7 20 -60z m226 46 c27 -28 17 -46
-26 -46 -38 0 -40 -2 -40 -30 0 -23 4 -30 20 -30 11 0 20 5 20 10 0 6 9 10 20
10 24 0 25 -6 6 -26 -19 -18 -73 -18 -92 0 -17 18 -19 92 -1 111 16 19 74 19
93 1z m400 0 c9 -9 14 -35 14 -70 0 -49 -2 -56 -20 -56 -18 0 -20 7 -20 60 0
53 -2 60 -20 60 -18 0 -20 -7 -20 -60 0 -53 -2 -60 -20 -60 -18 0 -20 7 -20
70 l0 70 46 0 c26 0 52 -6 60 -14z m94 -72 c0 -61 -4 -90 -14 -100 -17 -16
-46 -19 -46 -4 0 6 5 10 10 10 6 0 10 37 10 90 0 83 1 90 20 90 18 0 20 -7 20
-86z m146 72 c27 -28 17 -46 -26 -46 -38 0 -40 -2 -40 -30 0 -23 4 -30 20 -30
11 0 20 5 20 10 0 6 9 10 20 10 24 0 25 -6 6 -26 -19 -18 -73 -18 -92 0 -17
18 -19 92 -1 111 16 19 74 19 93 1z m314 -56 c0 -63 -2 -70 -20 -70 -18 0 -20
7 -20 70 0 63 2 70 20 70 18 0 20 -7 20 -70z m146 56 c8 -8 14 -33 14 -56 0
-23 -6 -48 -14 -56 -19 -18 -73 -18 -92 0 -17 18 -19 92 -1 111 16 19 74 19
93 1z m160 0 c9 -9 14 -35 14 -70 0 -49 -2 -56 -20 -56 -18 0 -20 7 -20 60 0
53 -2 60 -20 60 -18 0 -20 -7 -20 -60 0 -53 -2 -60 -20 -60 -18 0 -20 7 -20
70 l0 70 46 0 c26 0 52 -6 60 -14z m-3533 -283 c-20 -7 -15 -19 7 -20 11 -1
18 2 15 8 -4 5 -1 9 5 9 7 0 10 -6 8 -12 -7 -20 -44 -17 -62 3 -15 18 -14 19
5 19 13 0 18 4 13 13 -4 7 -2 7 7 -2 11 -10 11 -15 2 -18z m4034 -18 c0 -8 -4
-12 -8 -9 -4 2 -9 -1 -11 -8 -3 -7 -7 -5 -11 6 -4 10 -3 15 3 11 6 -3 10 -1
10 4 0 6 4 11 8 11 5 0 9 -7 9 -15z m-3970 -17 c0 -13 -1 -17 -4 -10 -3 6 -10
9 -16 5 -7 -4 -6 1 2 10 17 21 17 21 18 -5z"/>
<path d="M880 330 c0 -5 9 -10 20 -10 11 0 20 5 20 10 0 6 -9 10 -20 10 -11 0
-20 -4 -20 -10z"/>
<path d="M1360 290 c0 -43 3 -50 20 -50 17 0 20 7 20 50 0 43 -3 50 -20 50
-17 0 -20 -7 -20 -50z"/>
<path d="M2300 330 c0 -5 9 -10 20 -10 11 0 20 5 20 10 0 6 -9 10 -20 10 -11
0 -20 -4 -20 -10z"/>
<path d="M2940 330 c0 -5 9 -10 20 -10 11 0 20 5 20 10 0 6 -9 10 -20 10 -11
0 -20 -4 -20 -10z"/>
<path d="M3400 290 c0 -43 3 -50 20 -50 17 0 20 7 20 50 0 43 -3 50 -20 50
-17 0 -20 -7 -20 -50z"/>
</g>
</svg>
